<svg xmlns="http://www.w3.org/2000/svg" id="Capa_2" data-name="Capa 2" viewBox="0 0 411.27 406.09">
  <defs fill="#000000">
    <style>
      .cls-1 {
        fill: #ffffff;
      }

      .cls-2 {
        fill: #4aa95b;
      }
    </style>
  </defs>
  <g id="Capa_1-2" data-name="Capa 1">
    <g>
      <path class="cls-1" d="M204.55,250.37c-31.56,0-62.93-1.82-93.23-5.41-24.89-2.94-43.67-6.32-60.88-10.96-13.15-3.53-26.83-7.64-37.08-15.57-4.11-3.19-10.4-9.68-6.33-17.29,7.12-13.31,29.88-19.02,44.93-22.8l4.07-1.02.27-4.2c1.43-25.5,5.86-44.77,14.36-62.49,4.67-9.7,10.53-19,17.41-27.62l.9-1.13.26-1.42s0,0,0,0c.02,0,.1-.07.17-.1l1.24-.52.87-1.02c17.98-20.96,41.58-36.74,68.25-45.63l3.64-1.21.24-3.83c.35-5.53,1.42-22.37,39.9-22.37,3.95,0,8.2.17,12.99.53,9.7.72,23.21,2.68,28.58,11.33,1.51,2.44,2.26,5.58,2.43,10.18l.15,3.97,3.77,1.23c27.07,8.86,51.03,24.89,69.29,46.36l.5.59.64.43.31.74.61.73c7.18,8.85,13.27,18.35,18.09,28.24,8.69,17.85,13.21,37.33,14.63,63.18l.23,4.19,4.25,1.07c14.45,3.65,41.34,10.44,45.19,25.23,2.08,7.96-6.09,14.48-13.32,18.55-13.93,7.82-30.33,11.81-44.61,14.94-19.45,4.26-40.41,7.32-65.96,9.62-25.62,2.31-51.45,3.49-76.78,3.49Z" fill="#000000"/>
      <g>
        <path class="cls-2" d="M161.7,26.55C95.84,46.38,50.19,107.8,49.97,176.54c-.03,9.66,0,19.32,0,28.99,0,6.96,10.81,6.97,10.81,0,0-21.8-.99-43.61,4.39-64.94,7.84-31.07,26.09-58.93,51.25-78.75,14.3-11.26,30.75-19.62,48.15-24.86,6.65-2,3.81-12.44-2.87-10.43h0Z" fill="#000000"/>
        <path class="cls-2" d="M361.92,205.52c0-23.7.83-47.27-5.45-70.39-8.91-32.79-28.75-62.04-55.66-82.73-15.32-11.79-32.72-20.54-51.25-26.03-6.69-1.98-9.54,8.45-2.87,10.43,61.91,18.35,104.34,75.99,104.42,140.38.01,9.45,0,18.9,0,28.35,0,6.96,10.81,6.97,10.81,0h0Z" fill="#000000"/>
        <path class="cls-2" d="M318.21,76.45c-20.57,19.4-22.75,48.87-23.21,75.49-.31,17.93-.1,35.88-.1,53.81,0,6.96,10.81,6.97,10.81,0,0-16.31-.12-32.62.03-48.92.23-25.05.53-54.27,20.11-72.73,5.07-4.78-2.58-12.42-7.65-7.65h0Z" fill="#000000"/>
        <path class="cls-2" d="M86.38,83.87c19.57,18.46,19.88,47.68,20.11,72.73.15,16.3.03,32.62.03,48.92,0,6.96,10.81,6.97,10.81,0,0-17.93.21-35.88-.1-53.81-.46-26.63-2.64-56.09-23.21-75.49-5.06-4.77-12.72,2.86-7.65,7.65h0Z" fill="#000000"/>
        <path class="cls-2" d="M355,183.13c10.87,2.78,21.92,5.9,31.93,11.08,4.44,2.3,11.39,5.86,12.79,11,.55,2-.33,3.79-1.77,5.45-2.94,3.39-6.43,5.46-10.6,7.65-12.19,6.4-25.97,9.93-39.32,12.97-19.87,4.51-40.11,7.35-60.38,9.34-49.33,4.86-99.32,5.17-148.74,1.35-21.44-1.66-42.85-4.15-63.97-8.23-15.13-2.92-30.53-6.43-44.78-12.45-4.78-2.02-10.44-4.87-13.99-7.83-1.86-1.55-3.05-2.88-3.83-4.09-.17-.26-.32-.55-.47-.83-.64-1.2.33.8-.15-.3-.16-.37-.3-.86-.36-1.26-.17-1.2-.03,1.13-.02-.18.06-5.09,6.81-9.25,11.47-11.8,10.57-5.78,22.46-9.1,34.07-12.03,7.11-1.8,4.1-12.79-3.03-10.99-11.81,2.98-23.68,6.52-34.59,12.03-6.51,3.29-13.5,7.7-17.14,14.26-5.66,10.22.85,19.74,9.15,25.72,11.37,8.19,25.86,12.43,39.23,15.94,20.7,5.43,41.97,8.65,63.2,11.06,54.21,6.15,109.43,6.56,163.78,1.97,22.95-1.94,45.92-4.8,68.46-9.56,15.81-3.34,31.98-7.46,46.44-14.86,9.26-4.74,20.8-13.06,18.6-25.01-1.46-7.94-8.52-13.51-15.09-17.37-11.58-6.81-24.95-10.7-37.87-14-7.11-1.82-10.15,9.18-3.03,10.99h0Z" fill="#000000"/>
        <path class="cls-2" d="M247.87,183.67c.83-22.28,1.65-44.56,2.46-66.84,1.02-28.07,2.17-56.13,2.96-84.21.13-4.64.12-9.49-1.4-13.91-4.64-13.54-21.5-17.03-33.97-18.03-14.78-1.19-31.86-1.48-45.59,4.88-10.15,4.7-14.33,13.12-14.45,24.03-.26,24.7,1.67,49.6,2.56,74.27.95,26.12,1.46,52.29,2.88,78.39.03.47.04.94.05,1.41.26,6.94,11.07,6.97,10.81,0-.77-20.77-1.54-41.55-2.3-62.32-1.03-28.3-2.12-56.6-3.01-84.91-.07-2.37-.23-4.76-.19-7.13.07-4.67.68-8.97,4.64-11.92,5.58-4.15,13.26-5.36,19.99-5.9,8.17-.66,16.42-.66,24.59,0,6.73.54,14.41,1.75,19.99,5.9,4.63,3.45,4.73,9.03,4.59,14.3-.67,25.71-1.76,51.42-2.7,77.12-.89,24.46-2.66,49.06-2.7,73.54,0,.44-.03.88-.05,1.31-.26,6.96,10.56,6.95,10.81,0h0Z" fill="#000000"/>
      </g>
      <path class="cls-2" d="M274.43,271.27c-4.12,34.35-33.36,60.99-68.82,60.99s-64.75-26.68-68.84-61.05c-28.35-2.28-53.69-5.93-74.33-10.58v8.97c0,8.99,6.46,16.68,15.31,18.22l7.33,1.29c6.61,1.16,11.97,5.87,14.27,12.18,1.2,3.34,2.56,6.61,4.07,9.79,2.83,5.97,2.38,12.96-1.43,18.37l-4.41,6.29c-5.15,7.35-4.27,17.35,2.07,23.71l9.44,9.42c6.35,6.35,16.34,7.22,23.69,2.07l6.27-4.41c5.41-3.78,12.41-4.24,18.39-1.41,3.17,1.5,6.44,2.87,9.79,4.08,6.31,2.28,11.02,7.64,12.18,14.27l1.29,7.3c1.54,8.85,9.23,15.31,18.22,15.31h13.34c8.99,0,16.66-6.46,18.22-15.31l1.29-7.3c1.16-6.63,5.87-11.99,12.18-14.27,3.34-1.22,6.61-2.58,9.8-4.08,5.97-2.83,12.96-2.38,18.37,1.43l6.27,4.39c7.35,5.15,17.35,4.28,23.69-2.07l9.44-9.42c6.35-6.37,7.22-16.36,2.07-23.71l-4.41-6.27c-3.78-5.41-4.24-12.41-1.41-18.37,1.5-3.19,2.87-6.46,4.07-9.8,2.3-6.31,7.66-11.02,14.27-12.18l7.32-1.29c8.85-1.54,15.31-9.23,15.31-18.22v-8.83c-20.69,4.64-46.02,8.25-74.35,10.51Z" fill="#000000"/>
      <circle class="cls-2" cx="205.61" cy="260.63" r="38.47" fill="#000000"/>
    </g>
  </g>
</svg>