<svg xmlns="http://www.w3.org/2000/svg" id="Capa_2" data-name="Capa 2" viewBox="0 0 337.49 364.96">
  <defs fill="#000000">
    <style>
      .cls-1 {
        fill: #fff;
      }

      .cls-2 {
        fill: #4aa95b;
      }
    </style>
  </defs>
  <g id="Capa_1-2" data-name="Capa 1">
    <g>
      <path class="cls-1" d="M167.77,5.52c-62.89,0-62.89,50.81-163.23,50.81,0,128.9,26.11,243.56,163.23,303.11,137.14-59.55,163.23-174.29,163.23-303.16-100.26,0-100.34-50.75-163.23-50.75Z" fill="#000000"/>
      <path class="cls-2" d="M168.75,0c-20.55.1-38.71,6.38-56.04,17.1s-34.24,21.75-54.33,27.36c-17.21,4.8-35.04,6.3-52.85,6.35C2.54,50.82,0,53.33,0,56.33c.04,48.76,3.41,98.4,17.72,145.27,13.66,44.74,38.08,85.56,73.57,116.38,20.24,17.58,43.2,31.79,67.51,43.01,2.84,1.31,6.74,3.96,9.95,3.96s7.04-2.62,9.95-3.96c6.43-2.97,12.76-6.14,18.98-9.52,11.8-6.43,23.18-13.65,33.92-21.73,38.11-28.67,66.14-67.25,82.68-111.9,16.82-45.39,21.96-94.45,23.01-142.56.14-6.34.2-12.68.2-19.02,0-2.99-2.53-5.51-5.52-5.52-27.78-.08-55.42-4.14-80.2-17.28-16.39-8.69-30.96-20.54-48.35-27.33C192.39,1.81,180.56.06,168.75,0c-7.11-.03-7.11,11.01,0,11.04,19.94.1,36.6,6.8,53.24,17.28,17.99,11.33,35.72,21.89,56.51,27.33,17.41,4.56,35.53,6.07,53.48,6.12l-5.52-5.52c-.03,47.03-3.18,94.69-16.62,140s-35.73,82.2-69.47,112.18c-21.97,19.52-47.55,34.49-74.41,46.23h5.57c-45.25-19.78-85.98-49.35-113.26-91.07-24.55-37.55-37.04-81.5-42.66-125.68-3.44-27.05-4.55-54.34-4.57-81.59l-5.52,5.52c28.46-.09,56.82-4.25,82.47-17.1,16.33-8.18,30.62-20.23,47.48-27.36,10.57-4.47,21.84-6.3,33.27-6.35,7.1-.03,7.12-11.08,0-11.04Z" fill="#000000"/>
      <path class="cls-2" d="M171.53,313.92c-30.81-15.55-58.7-36.88-78.72-65.28-18.99-26.94-30.1-58.21-36.45-90.37-4.39-22.25-6.55-44.85-7.63-67.48l-4.05,5.32c19.46-2.81,38.33-8.12,56.13-16.52,14.07-6.64,26.66-15.54,40-23.45,15.44-9.15,34.08-11.33,50.47-3.01,13.77,6.99,26.09,16.59,39.86,23.65,19.36,9.94,40.16,16.14,61.67,19.25l-4.05-5.32c-1.78,37.25-6.48,74.84-19.29,110.06-11.16,30.69-29.26,58.27-53.71,80.01-14.98,13.32-31.94,24.12-49.8,33.13-6.34,3.2-.76,12.73,5.57,9.53,32.15-16.23,60.78-38.68,81.84-68.08,20.13-28.1,31.97-61.27,38.55-94.99,4.48-22.96,6.76-46.31,7.87-69.66.1-2.16-1.77-4.99-4.05-5.32-19.7-2.84-38.97-8.14-56.84-17.02-14.01-6.96-26.47-16.39-40.2-23.79-16.27-8.78-36.4-10.44-53.55-3.09-14.56,6.24-27.18,16.63-41.12,24.13-19.44,10.45-40.48,16.71-62.29,19.85-2.27.33-4.16,3.13-4.05,5.32,1.84,38.61,6.67,77.82,20.16,114.26,11.91,32.18,30.82,61.26,56.62,84.03,15.54,13.72,33,25.04,51.49,34.37,6.33,3.19,11.92-6.33,5.57-9.53Z" fill="#000000"/>
      <path id="Check" class="cls-2" d="M158.48,239.28c-4.77,0-9.36-1.83-12.83-5.14l-39.5-37.65c-7.43-7.09-7.71-18.85-.63-26.28,7.08-7.43,18.85-7.72,26.28-.63l25.43,24.24,63.99-73.37c6.75-7.73,18.49-8.54,26.23-1.79,7.73,6.75,8.54,18.49,1.79,26.23l-76.76,88.01c-3.34,3.82-8.09,6.12-13.15,6.35-.29.02-.57.02-.86.02Z" fill="#000000"/>
    </g>
  </g>
</svg>